<?xml version="1.0" encoding="UTF-8" standalone="no"?>
<svg
   xmlns:dc="http://purl.org/dc/elements/1.1/"
   xmlns:cc="http://creativecommons.org/ns#"
   xmlns:rdf="http://www.w3.org/1999/02/22-rdf-syntax-ns#"
   xmlns:svg="http://www.w3.org/2000/svg"
   xmlns="http://www.w3.org/2000/svg"
   xmlns:sodipodi="http://sodipodi.sourceforge.net/DTD/sodipodi-0.dtd"
   xmlns:inkscape="http://www.inkscape.org/namespaces/inkscape"
   id="svg316"
   version="1.1"
   height="1020.1708"
   width="1467.9589"
   sodipodi:docname="wedge-nh.svg"
   inkscape:version="0.92.5 (2060ec1f9f, 2020-04-08)">
  <sodipodi:namedview
     pagecolor="#ffffff"
     bordercolor="#666666"
     borderopacity="1"
     objecttolerance="10"
     gridtolerance="10"
     guidetolerance="10"
     inkscape:pageopacity="0"
     inkscape:pageshadow="2"
     inkscape:window-width="1920"
     inkscape:window-height="1056"
     id="namedview162"
     showgrid="false"
     fit-margin-top="0"
     fit-margin-left="0"
     fit-margin-right="0"
     fit-margin-bottom="0"
     inkscape:zoom="0.65082476"
     inkscape:cx="548.08727"
     inkscape:cy="470.84174"
     inkscape:window-x="0"
     inkscape:window-y="0"
     inkscape:window-maximized="1"
     inkscape:current-layer="svg316" />
  <metadata
     id="metadata322">
    <rdf:RDF>
      <cc:Work
         rdf:about="">
        <dc:format>image/svg+xml</dc:format>
        <dc:type
           rdf:resource="http://purl.org/dc/dcmitype/StillImage" />
        <dc:title></dc:title>
      </cc:Work>
    </rdf:RDF>
  </metadata>
  <defs
     id="defs320" />
  <rect
     style="fill:none;fill-opacity:0.41293532;stroke:#ffffff;stroke-width:3.42860651;stroke-miterlimit:4;stroke-dasharray:none;stroke-opacity:0.90980392"
     id="rect4914"
     width="1464.5303"
     height="1016.7422"
     x="1.7143033"
     y="1.7143033"
     ry="31.608568" />
  <path
     style="fill:#ffffff;fill-opacity:0.18039216;stroke:none;stroke-width:2.0999999;stroke-miterlimit:4;stroke-dasharray:none;stroke-opacity:1"
     d="m 1097.9416,287.0744 c -2.2471,-0.0135 -4.4936,-0.002 -6.7402,0.0332 -90.9965,1.98423 -178.31686,39.58718 -250.00193,94.23633 -38.34909,28.48115 -73.61825,60.8399 -107.70117,94.23828 C 667.94944,410.86816 595.55844,349.99395 509.44947,314.80291 428.44316,281.58255 333.93304,276.55654 252.33423,310.60174 168.70697,345.44005 104.29051,425.95213 93.883052,516.60565 81.217247,619.33559 139.21926,726.84216 232.61548,771.83221 c 78.53368,40.82706 173.95407,42.93328 256.4961,12.98828 84.68977,-29.54459 157.7069,-84.69863 221.68359,-146.41406 7.57429,-7.22352 15.07164,-14.52622 22.55274,-21.84571 65.49764,64.62433 137.77878,125.46244 223.76757,160.68164 82.13432,33.75011 178.15042,38.3431 260.61522,3.1543 91.5214,-39.17534 157.4668,-134.54691 157.1445,-234.73437 -0.1543,-107.14899 -75.4901,-209.43411 -177.7344,-241.44531 -31.7817,-11.27547 -65.4919,-16.94028 -99.1992,-17.14258 z M 368.19361,388.28729 c 32.65535,-0.31865 65.29172,5.61783 95.9375,16.83008 79.18471,29.1949 144.07544,85.79789 203.36523,144.18554 -9.7645,9.57527 -19.63812,19.03695 -29.66211,28.33984 -55.80794,52.91069 -119.45418,101.30906 -194.51367,122.4961 -61.75654,19.87939 -133.58654,12.26578 -186.48437,-26.61133 -58.29473,-39.52971 -80.7459,-122.8526 -50.95508,-186.52344 28.71291,-60.89635 95.7889,-99.01319 162.3125,-98.71679 z m 729.19339,0.0644 c 18.2617,-0.153 36.5562,2.0873 54.2011,6.81836 64.9311,13.91636 118.2424,71.23271 126.2168,137.32617 7.7499,62.02601 -28.7329,124.79542 -82.9492,154.11133 -56.9747,30.18401 -126.5021,29.57155 -186.1933,7.76367 -79.7572,-29.34213 -145.24691,-86.16907 -204.95512,-144.98047 29.05346,-28.4796 58.9916,-56.1641 91.22461,-81.03515 57.69219,-45.31047 128.02521,-78.74289 202.45511,-80.00391 z"
     id="path165"
     inkscape:connector-curvature="0" />
  <path
     style="fill:none;stroke:#db344c;stroke-width:2.0999999;stroke-miterlimit:4;stroke-dasharray:none;stroke-opacity:1"
     id="path2"
     d="m 1326.5979,549.32903 -0.1405,7.43964 -0.4213,7.42786 -0.7009,7.40435 -0.979,7.3691 -1.2548,7.3225 -1.5275,7.2645 -1.7968,7.1955 -2.0619,7.1155 -2.3222,7.0252 -2.5774,6.9246 -2.8265,6.8144 -3.0696,6.6947 -3.3059,6.5661 -3.5351,6.4291 -3.7568,6.2842 -3.9705,6.1317 -4.1763,5.9725 -4.3737,5.8067 -4.5624,5.6351 -4.7423,5.4583 -4.9134,5.2765 -5.0756,5.0907 -5.2285,4.9012 -5.3725,4.7083 -5.5074,4.5131 -5.6332,4.3154 -5.7501,4.1164 -5.8582,3.916 -5.9575,3.7149 -6.0482,3.5136 -6.1307,3.3125 -6.2047,3.1118 -6.271,2.912 -6.3293,2.7136 -6.3802,2.5167 -6.4239,2.3216 -6.4604,2.1288 -6.4904,1.9385 -6.5137,1.7507 -6.5311,1.5658 -6.5424,1.384 -6.5481,1.2056 -6.5486,1.0304 -6.5441,0.8588 -6.5346,0.6908 -6.5208,0.5266 -6.5028,0.3663 -6.4808,0.2097 -6.4551,0.057 -6.426,-0.091 -6.3939,-0.2361 -6.3587,-0.3766 -6.3208,-0.5133 -6.2805,-0.6458 -6.238,-0.7745 -6.1933,-0.8992 -6.147,-1.02 -6.0988,-1.137 -6.0493,-1.2501 -5.9985,-1.3594 -5.9465,-1.4651 -5.8936,-1.5672 -5.8399,-1.6656 -5.7855,-1.7607 -5.73064,-1.8523 -5.67533,-1.9405 -5.61974,-2.0256 -5.564,-2.1073 -5.50819,-2.1861 -5.45244,-2.2619 -5.39681,-2.3346 -5.34141,-2.4046 -5.28631,-2.4717 -5.23161,-2.5363 -5.17736,-2.5982 -5.12362,-2.6575 -5.07047,-2.7145 -5.01797,-2.7691 -4.96615,-2.8213 -4.91508,-2.8715 -4.86479,-2.9193 -4.81535,-2.9653 -4.76675,-3.0091 -4.71907,-3.0511 -4.67232,-3.0912 -4.62653,-3.1295 -4.58174,-3.1661 -4.53795,-3.201 -4.49521,-3.2343 -4.45351,-3.2661 -4.4129,-3.2963 -4.37336,-3.3252 -4.33494,-3.3526 -4.29763,-3.3787 -4.26144,-3.4036 -4.2264,-3.4271 -4.19249,-3.4496 -4.15974,-3.4708 -4.12815,-3.4909 -4.09772,-3.51 -4.06847,-3.528 -4.04038,-3.545 -4.01348,-3.5611 -3.98774,-3.5763 -3.9632,-3.5905 -3.93983,-3.6038 -3.91765,-3.6164 -3.89666,-3.6281 -3.87684,-3.6391 -3.85822,-3.6492 -3.84078,-3.6586 -3.82453,-3.6673 -3.80946,-3.6753 -3.79557,-3.6825 -3.78287,-3.6892 -3.77135,-3.6951 -3.76103,-3.7005 -3.75187,-3.7051 -3.7439,-3.7092 -3.73712,-3.7126 -3.73151,-3.71543 -3.72708,-3.71766 -3.72384,-3.71928 -3.72178,-3.72032 -3.72089,-3.72076 -3.72118,-3.72061 -3.72266,-3.71988 -3.72532,-3.71855 -3.72915,-3.71662 -3.73416,-3.71409 -3.74036,-3.71097 -3.74774,-3.70723 -3.7563,-3.70286 -3.76604,-3.69787 -3.77697,-3.69225 -3.78907,-3.68595 -3.80237,-3.67901 -3.81684,-3.67137 -3.83251,-3.66305 -3.84935,-3.65399 -3.86738,-3.64422 -3.8866,-3.63367 -3.90701,-3.62236 -3.92859,-3.61023 -3.95137,-3.59729 -3.97532,-3.58348 -4.00047,-3.5688 -4.02678,-3.55319 -4.05427,-3.53665 -4.08295,-3.51912 -4.11279,-3.50057 -4.14381,-3.48099 -4.17597,-3.4603 -4.2093,-3.43849 -4.24377,-3.41551 -4.2794,-3.39131 -4.31614,-3.36584 -4.35401,-3.33906 -4.393,-3.31093 -4.43306,-3.28139 -4.47423,-3.25037 -4.51645,-3.21785 -4.55972,-3.18375 -4.60401,-3.148 -4.6493,-3.11056 -4.69558,-3.07137 -4.74279,-3.03035 -4.79094,-2.98743 -4.83996,-2.94257 -4.88984,-2.89566 -4.94052,-2.84667 -4.99197,-2.79549 -5.04413,-2.74206 -5.09698,-2.68633 -5.15041,-2.62817 -5.20443,-2.56754 -5.25891,-2.50435 -5.31382,-2.43851 -5.36907,-2.36996 -5.4246,-2.29859 -5.48031,-2.22434 -5.53609,-2.14712 -5.59189,-2.06684 -5.64756,-1.98344 -5.70301,-1.89681 -5.75814,-1.80689 -5.81278,-1.7136 -5.86685,-1.61686 -5.92017,-1.51659 -5.97261,-1.41274 -6.02403,-1.30522 -6.07423,-1.19397 -6.12306,-1.07895 -6.17036,-0.96009 -6.2159,-0.83735 -6.25951,-0.71068 -6.30098,-0.58006 -6.34009,-0.44546 -6.37662,-0.30685 -6.41035,-0.16424 -6.44103,-0.0177 -6.46841,0.13295 -6.49226,0.28749 -6.5123,0.44595 -6.52827,0.60826 -6.5399,0.77435 -6.54691,0.94414 -6.54902,1.11753 -6.54596,1.29437 -6.53744,1.47455 -6.52316,1.65789 -6.50286,1.84421 -6.47623,2.03331 -6.44301,2.22495 -6.40293,2.41891 -6.3557,2.6149 -6.30109,2.81263 -6.23883,3.01178 -6.1687,3.21202 -6.09047,3.41299 -6.00393,3.6143 -5.90892,3.81553 -5.80524,4.01628 -5.6928,4.21609 -5.57143,4.41449 -5.44106,4.61099 -5.30166,4.80512 -5.15317,4.99634 -4.9956,5.18413 -4.82902,5.36798 -4.65347,5.54731 -4.46909,5.72162 -4.27603,5.89034 -4.07448,6.05293 -3.86466,6.20886 -3.64686,6.35761 -3.4214,6.49865 -3.18862,6.63149 -2.94891,6.75566 -2.7027,6.87068 -2.45046,6.97615 -2.19268,7.07165 -1.92989,7.15683 -1.66266,7.23134 -1.39157,7.2949 -1.11721,7.34725 -0.84023,7.38819 -0.56126,7.41756 -0.28097,7.43522 v 7.44112 l 0.28097,7.43522 0.56126,7.41757 0.84023,7.3882 1.11721,7.3472 1.39157,7.2949 1.66266,7.2314 1.92989,7.1568 2.19268,7.0716 2.45046,6.9762 2.7027,6.8707 2.94891,6.7556 3.18862,6.6315 3.4214,6.4987 3.64686,6.3576 3.86466,6.2088 4.07448,6.053 4.27603,5.8903 4.46909,5.7216 4.65347,5.5474 4.82902,5.3679 4.9956,5.1842 5.15317,4.9963 5.30166,4.8051 5.44106,4.611 5.57143,4.4145 5.6928,4.2161 5.80524,4.0163 5.90892,3.8155 6.00393,3.6143 6.09047,3.413 6.1687,3.212 6.23883,3.0118 6.30109,2.8126 6.3557,2.6149 6.40293,2.4189 6.44301,2.225 6.47623,2.0333 6.50286,1.8442 6.52316,1.6579 6.53744,1.4745 6.54596,1.2944 6.54902,1.1175 6.54691,0.9442 6.5399,0.7743 6.52827,0.6083 6.5123,0.4459 6.49226,0.2875 6.46841,0.133 6.44103,-0.018 6.41035,-0.1642 6.37662,-0.3069 6.34009,-0.4454 6.30098,-0.5801 6.25951,-0.7107 6.2159,-0.8373 6.17036,-0.9601 6.12306,-1.0789 6.07423,-1.194 6.02403,-1.3052 5.97261,-1.4128 5.92017,-1.5166 5.86685,-1.6168 5.81278,-1.7136 5.75814,-1.8069 5.70301,-1.8968 5.64756,-1.9835 5.59189,-2.0668 5.53609,-2.1471 5.48031,-2.2244 5.4246,-2.2986 5.36907,-2.3699 5.31382,-2.4385 5.25891,-2.5044 5.20443,-2.5675 5.15041,-2.6282 5.09698,-2.6863 5.04413,-2.7421 4.99197,-2.7955 4.94052,-2.8466 4.88984,-2.8957 4.83996,-2.9426 4.79094,-2.9874 4.74279,-3.0303 4.69558,-3.0714 4.6493,-3.1106 4.60401,-3.148 4.55972,-3.1837 4.51645,-3.2179 4.47423,-3.2504 4.43306,-3.2813 4.393,-3.311 4.35401,-3.339 4.31614,-3.3659 4.2794,-3.3913 4.24377,-3.4155 4.2093,-3.4385 4.17597,-3.4603 4.14381,-3.481 4.11279,-3.5005 4.08295,-3.5192 4.05427,-3.5366 4.02678,-3.5532 4.00047,-3.5688 3.97532,-3.5835 3.95137,-3.5973 3.92859,-3.6102 3.90701,-3.6224 3.8866,-3.6336 3.86738,-3.6442 3.84935,-3.654 3.83251,-3.6631 3.81684,-3.6714 3.80237,-3.679 3.78907,-3.6859 3.77697,-3.6923 3.76604,-3.6978 3.7563,-3.7029 3.74774,-3.7072 3.74036,-3.711 3.73416,-3.7141 3.72915,-3.71662 3.72532,-3.71854 3.72266,-3.71988 3.72118,-3.72061 3.72089,-3.72076 3.72178,-3.72032 3.72384,-3.71929 3.72708,-3.71765 3.73151,-3.71544 3.73712,-3.71261 3.7439,-3.70917 3.75187,-3.70512 3.76103,-3.70045 3.77135,-3.69514 3.78287,-3.68918 3.79557,-3.68257 3.80946,-3.67527 3.82453,-3.6673 3.84078,-3.65861 3.85822,-3.6492 3.87684,-3.63904 3.89666,-3.62811 3.91765,-3.6164 3.93983,-3.60387 3.9632,-3.59049 3.98774,-3.57625 4.01348,-3.56111 4.04038,-3.54504 4.06847,-3.52801 4.09772,-3.50998 4.12815,-3.49091 4.15974,-3.47079 4.19249,-3.44954 4.2264,-3.42715 4.26144,-3.40356 4.29763,-3.37873 4.33494,-3.35262 4.37336,-3.32517 4.4129,-3.29634 4.45351,-3.26607 4.49521,-3.2343 4.53795,-3.201 4.58174,-3.16608 4.62653,-3.1295 4.67232,-3.09119 4.71907,-3.05109 4.76675,-3.00913 4.81535,-2.96525 4.86479,-2.91937 4.91508,-2.87143 4.96615,-2.82136 5.01797,-2.76906 5.07047,-2.71449 5.12362,-2.65755 5.17736,-2.59817 5.23161,-2.53627 5.28631,-2.47177 5.34141,-2.40458 5.39681,-2.33463 5.45244,-2.26183 5.50819,-2.18611 5.564,-2.10737 5.61974,-2.02554 5.67533,-1.94053 5.73064,-1.85227 5.7855,-1.76067 5.8399,-1.66566 5.8936,-1.56717 5.9465,-1.46512 5.9985,-1.35944 6.0493,-1.25007 6.0988,-1.13693 6.147,-1.02001 6.1933,-0.89921 6.238,-0.7745 6.2805,-0.64587 6.3208,-0.51325 6.3587,-0.37666 6.3939,-0.23605 6.426,-0.0914 6.4551,0.0572 6.4808,0.20972 6.5028,0.36624 6.5208,0.52662 6.5346,0.69084 6.5441,0.85879 6.5486,1.03039 6.5481,1.20553 6.5424,1.38405 6.5311,1.56584 6.5137,1.75069 6.4904,1.93842 6.4604,2.12883 6.4239,2.32166 6.3802,2.51667 6.3293,2.71356 6.271,2.91205 6.2047,3.11179 6.1307,3.31244 6.0482,3.51362 5.9575,3.71495 5.8582,3.916 5.7501,4.11633 5.6332,4.31549 5.5074,4.51301 5.3725,4.70838 5.2285,4.90113 5.0756,5.0907 4.9134,5.27658 4.7423,5.45823 4.5624,5.63513 4.3737,5.80672 4.1763,5.97243 3.9705,6.13176 3.7568,6.28417 3.5351,6.42913 3.3059,6.56612 3.0696,6.69469 2.8265,6.81434 2.5774,6.92464 2.3222,7.02517 2.0619,7.11555 1.7968,7.19543 1.5275,7.26451 1.2548,7.32249 0.979,7.36916 0.7009,7.40433 0.4213,7.42786 0.1405,7.43964"
     class="shape"
     inkscape:connector-curvature="0" />
  <circle
     style="opacity:0.6;fill:#3be57f;fill-opacity:0.98039216;stroke:none"
     id="circle4"
     r="3"
     cy="546.47955"
     cx="1318.2477"
     class="sample" />
  <circle
     style="opacity:0.6;fill:#3be57f;fill-opacity:0.98039216;stroke:none"
     id="circle6"
     r="3"
     cy="633.63312"
     cx="1314.6222"
     class="sample" />
  <circle
     style="opacity:0.6;fill:#3be57f;fill-opacity:0.98039216;stroke:none"
     id="circle8"
     r="3"
     cy="660.46362"
     cx="1296.6508"
     class="sample" />
  <circle
     style="opacity:0.6;fill:#3be57f;fill-opacity:0.98039216;stroke:none"
     id="circle10"
     r="3"
     cy="631.23322"
     cx="1275.0604"
     class="sample" />
  <circle
     style="opacity:0.6;fill:#3be57f;fill-opacity:0.98039216;stroke:none"
     id="circle12"
     r="3"
     cy="687.61859"
     cx="1243.882"
     class="sample" />
  <circle
     style="opacity:0.6;fill:#3be57f;fill-opacity:0.98039216;stroke:none"
     id="circle14"
     r="3"
     cy="725.29657"
     cx="1233.6161"
     class="sample" />
  <circle
     style="opacity:0.6;fill:#3be57f;fill-opacity:0.98039216;stroke:none"
     id="circle16"
     r="3"
     cy="747.96979"
     cx="1171.8458"
     class="sample" />
  <circle
     style="opacity:0.6;fill:#3be57f;fill-opacity:0.98039216;stroke:none"
     id="circle18"
     r="3"
     cy="745.64197"
     cx="1135.0227"
     class="sample" />
  <circle
     style="opacity:0.6;fill:#3be57f;fill-opacity:0.98039216;stroke:none"
     id="circle20"
     r="3"
     cy="773.77472"
     cx="1084.1035"
     class="sample" />
  <circle
     style="opacity:0.6;fill:#3be57f;fill-opacity:0.98039216;stroke:none"
     id="circle22"
     r="3"
     cy="769.64099"
     cx="1064.2773"
     class="sample" />
  <circle
     style="opacity:0.6;fill:#3be57f;fill-opacity:0.98039216;stroke:none"
     id="circle24"
     r="3"
     cy="721.31165"
     cx="1016.9432"
     class="sample" />
  <circle
     style="opacity:0.6;fill:#3be57f;fill-opacity:0.98039216;stroke:none"
     id="circle26"
     r="3"
     cy="718.90326"
     cx="1020.3326"
     class="sample" />
  <circle
     style="opacity:0.6;fill:#3be57f;fill-opacity:0.98039216;stroke:none"
     id="circle28"
     r="3"
     cy="736.05005"
     cx="974.82019"
     class="sample" />
  <circle
     style="opacity:0.6;fill:#3be57f;fill-opacity:0.98039216;stroke:none"
     id="circle30"
     r="3"
     cy="688.97864"
     cx="912.47205"
     class="sample" />
  <circle
     style="opacity:0.6;fill:#3be57f;fill-opacity:0.98039216;stroke:none"
     id="circle32"
     r="3"
     cy="676.5545"
     cx="880.36627"
     class="sample" />
  <circle
     style="opacity:0.6;fill:#3be57f;fill-opacity:0.98039216;stroke:none"
     id="circle34"
     r="3"
     cy="673.81366"
     cx="892.51349"
     class="sample" />
  <circle
     style="opacity:0.6;fill:#3be57f;fill-opacity:0.98039216;stroke:none"
     id="circle36"
     r="3"
     cy="637.40826"
     cx="817.39081"
     class="sample" />
  <circle
     style="opacity:0.6;fill:#3be57f;fill-opacity:0.98039216;stroke:none"
     id="circle38"
     r="3"
     cy="611.54138"
     cx="799.38666"
     class="sample" />
  <circle
     style="opacity:0.6;fill:#3be57f;fill-opacity:0.98039216;stroke:none"
     id="circle40"
     r="3"
     cy="598.18164"
     cx="788.78003"
     class="sample" />
  <circle
     style="opacity:0.6;fill:#3be57f;fill-opacity:0.98039216;stroke:none"
     id="circle42"
     r="3"
     cy="557.51324"
     cx="786.16766"
     class="sample" />
  <circle
     style="opacity:0.6;fill:#3be57f;fill-opacity:0.98039216;stroke:none"
     id="circle44"
     r="3"
     cy="560.87988"
     cx="726.35596"
     class="sample" />
  <circle
     style="opacity:0.6;fill:#3be57f;fill-opacity:0.98039216;stroke:none"
     id="circle46"
     r="3"
     cy="508.90991"
     cx="691.15302"
     class="sample" />
  <circle
     style="opacity:0.6;fill:#3be57f;fill-opacity:0.98039216;stroke:none"
     id="circle48"
     r="3"
     cy="532.52869"
     cx="698.11127"
     class="sample" />
  <circle
     style="opacity:0.6;fill:#3be57f;fill-opacity:0.98039216;stroke:none"
     id="circle50"
     r="3"
     cy="439.62576"
     cx="665.42426"
     class="sample" />
  <circle
     style="opacity:0.6;fill:#3be57f;fill-opacity:0.98039216;stroke:none"
     id="circle52"
     r="3"
     cy="443.98608"
     cx="641.53198"
     class="sample" />
  <circle
     style="opacity:0.6;fill:#3be57f;fill-opacity:0.98039216;stroke:none"
     id="circle54"
     r="3"
     cy="427.31146"
     cx="613.24744"
     class="sample" />
  <circle
     style="opacity:0.6;fill:#3be57f;fill-opacity:0.98039216;stroke:none"
     id="circle56"
     r="3"
     cy="416.24582"
     cx="567.74573"
     class="sample" />
  <circle
     style="opacity:0.6;fill:#3be57f;fill-opacity:0.98039216;stroke:none"
     id="circle58"
     r="3"
     cy="376.81659"
     cx="544.58246"
     class="sample" />
  <circle
     style="opacity:0.6;fill:#3be57f;fill-opacity:0.98039216;stroke:none"
     id="circle60"
     r="3"
     cy="342.11179"
     cx="535.88446"
     class="sample" />
  <circle
     style="opacity:0.6;fill:#3be57f;fill-opacity:0.98039216;stroke:none"
     id="circle62"
     r="3"
     cy="369.23572"
     cx="469.18295"
     class="sample" />
  <circle
     style="opacity:0.6;fill:#3be57f;fill-opacity:0.98039216;stroke:none"
     id="circle64"
     r="3"
     cy="342.19772"
     cx="446.68399"
     class="sample" />
  <circle
     style="opacity:0.6;fill:#3be57f;fill-opacity:0.98039216;stroke:none"
     id="circle66"
     r="3"
     cy="338.7431"
     cx="402.82639"
     class="sample" />
  <circle
     style="opacity:0.6;fill:#3be57f;fill-opacity:0.98039216;stroke:none"
     id="circle68"
     r="3"
     cy="323.49628"
     cx="386.23434"
     class="sample" />
  <circle
     style="opacity:0.6;fill:#3be57f;fill-opacity:0.98039216;stroke:none"
     id="circle70"
     r="3"
     cy="339.90927"
     cx="311.15179"
     class="sample" />
  <circle
     style="opacity:0.6;fill:#3be57f;fill-opacity:0.98039216;stroke:none"
     id="circle72"
     r="3"
     cy="385.73349"
     cx="304.82626"
     class="sample" />
  <circle
     style="opacity:0.6;fill:#3be57f;fill-opacity:0.98039216;stroke:none"
     id="circle74"
     r="3"
     cy="412.49869"
     cx="245.94106"
     class="sample" />
  <circle
     style="opacity:0.6;fill:#3be57f;fill-opacity:0.98039216;stroke:none"
     id="circle76"
     r="3"
     cy="425.70041"
     cx="200.55675"
     class="sample" />
  <circle
     style="opacity:0.6;fill:#3be57f;fill-opacity:0.98039216;stroke:none"
     id="circle78"
     r="3"
     cy="450.38159"
     cx="177.25058"
     class="sample" />
  <circle
     style="opacity:0.6;fill:#3be57f;fill-opacity:0.98039216;stroke:none"
     id="circle80"
     r="3"
     cy="499.94186"
     cx="175.78835"
     class="sample" />
  <circle
     style="opacity:0.6;fill:#3be57f;fill-opacity:0.98039216;stroke:none"
     id="circle82"
     r="3"
     cy="569.66083"
     cx="133.31274"
     class="sample" />
  <circle
     style="opacity:0.6;fill:#3be57f;fill-opacity:0.98039216;stroke:none"
     id="circle84"
     r="3"
     cy="584.64008"
     cx="145.67763"
     class="sample" />
  <circle
     style="opacity:0.6;fill:#3be57f;fill-opacity:0.98039216;stroke:none"
     id="circle86"
     r="3"
     cy="656.44202"
     cx="173.45177"
     class="sample" />
  <circle
     style="opacity:0.6;fill:#3be57f;fill-opacity:0.98039216;stroke:none"
     id="circle88"
     r="3"
     cy="689.79395"
     cx="210.53082"
     class="sample" />
  <circle
     style="opacity:0.6;fill:#3be57f;fill-opacity:0.98039216;stroke:none"
     id="circle90"
     r="3"
     cy="706.76562"
     cx="231.42441"
     class="sample" />
  <circle
     style="opacity:0.6;fill:#3be57f;fill-opacity:0.98039216;stroke:none"
     id="circle92"
     r="3"
     cy="728.36346"
     cx="291.71753"
     class="sample" />
  <circle
     style="opacity:0.6;fill:#3be57f;fill-opacity:0.98039216;stroke:none"
     id="circle94"
     r="3"
     cy="747.39966"
     cx="301.41959"
     class="sample" />
  <circle
     style="opacity:0.6;fill:#3be57f;fill-opacity:0.98039216;stroke:none"
     id="circle96"
     r="3"
     cy="769.40741"
     cx="387.18781"
     class="sample" />
  <circle
     style="opacity:0.6;fill:#3be57f;fill-opacity:0.98039216;stroke:none"
     id="circle98"
     r="3"
     cy="761.52234"
     cx="421.46127"
     class="sample" />
  <circle
     style="opacity:0.6;fill:#3be57f;fill-opacity:0.98039216;stroke:none"
     id="circle100"
     r="3"
     cy="745.18219"
     cx="445.38577"
     class="sample" />
  <circle
     style="opacity:0.6;fill:#3be57f;fill-opacity:0.98039216;stroke:none"
     id="circle102"
     r="3"
     cy="742.44037"
     cx="480.63068"
     class="sample" />
  <circle
     style="opacity:0.6;fill:#3be57f;fill-opacity:0.98039216;stroke:none"
     id="circle104"
     r="3"
     cy="735.52405"
     cx="496.92484"
     class="sample" />
  <circle
     style="opacity:0.6;fill:#3be57f;fill-opacity:0.98039216;stroke:none"
     id="circle106"
     r="3"
     cy="666.95056"
     cx="541.26788"
     class="sample" />
  <circle
     style="opacity:0.6;fill:#3be57f;fill-opacity:0.98039216;stroke:none"
     id="circle108"
     r="3"
     cy="660.49408"
     cx="598.12549"
     class="sample" />
  <circle
     style="opacity:0.6;fill:#3be57f;fill-opacity:0.98039216;stroke:none"
     id="circle110"
     r="3"
     cy="634.59845"
     cx="574.10931"
     class="sample" />
  <circle
     style="opacity:0.6;fill:#3be57f;fill-opacity:0.98039216;stroke:none"
     id="circle112"
     r="3"
     cy="622.76825"
     cx="644.97278"
     class="sample" />
  <circle
     style="opacity:0.6;fill:#3be57f;fill-opacity:0.98039216;stroke:none"
     id="circle114"
     r="3"
     cy="612.20544"
     cx="626.47229"
     class="sample" />
  <circle
     style="opacity:0.6;fill:#3be57f;fill-opacity:0.98039216;stroke:none"
     id="circle116"
     r="3"
     cy="613.84344"
     cx="667.35547"
     class="sample" />
  <circle
     style="opacity:0.6;fill:#3be57f;fill-opacity:0.98039216;stroke:none"
     id="circle118"
     r="3"
     cy="584.35413"
     cx="692.8186"
     class="sample" />
  <circle
     style="opacity:0.6;fill:#3be57f;fill-opacity:0.98039216;stroke:none"
     id="circle120"
     r="3"
     cy="560.18964"
     cx="727.00189"
     class="sample" />
  <circle
     id="circle122"
     r="0"
     cy="546.47955"
     cx="1318.2477"
     class="ball"
     style="opacity:0.2;fill:#5ddd7b;stroke:#21ba45;stroke-width:2" />
  <circle
     id="circle124"
     r="0"
     cy="633.63312"
     cx="1314.6222"
     class="ball"
     style="opacity:0.2;fill:#5ddd7b;stroke:#21ba45;stroke-width:2" />
  <circle
     id="circle126"
     r="0"
     cy="660.46362"
     cx="1296.6508"
     class="ball"
     style="opacity:0.2;fill:#5ddd7b;stroke:#21ba45;stroke-width:2" />
  <circle
     id="circle128"
     r="0"
     cy="631.23322"
     cx="1275.0604"
     class="ball"
     style="opacity:0.2;fill:#5ddd7b;stroke:#21ba45;stroke-width:2" />
  <circle
     id="circle130"
     r="0"
     cy="687.61859"
     cx="1243.882"
     class="ball"
     style="opacity:0.2;fill:#5ddd7b;stroke:#21ba45;stroke-width:2" />
  <circle
     id="circle132"
     r="0"
     cy="725.29657"
     cx="1233.6161"
     class="ball"
     style="opacity:0.2;fill:#5ddd7b;stroke:#21ba45;stroke-width:2" />
  <circle
     id="circle134"
     r="0"
     cy="747.96979"
     cx="1171.8458"
     class="ball"
     style="opacity:0.2;fill:#5ddd7b;stroke:#21ba45;stroke-width:2" />
  <circle
     id="circle136"
     r="0"
     cy="745.64197"
     cx="1135.0227"
     class="ball"
     style="opacity:0.2;fill:#5ddd7b;stroke:#21ba45;stroke-width:2" />
  <circle
     id="circle138"
     r="0"
     cy="773.77472"
     cx="1084.1035"
     class="ball"
     style="opacity:0.2;fill:#5ddd7b;stroke:#21ba45;stroke-width:2" />
  <circle
     id="circle140"
     r="0"
     cy="769.64099"
     cx="1064.2773"
     class="ball"
     style="opacity:0.2;fill:#5ddd7b;stroke:#21ba45;stroke-width:2" />
  <circle
     id="circle142"
     r="0"
     cy="721.31165"
     cx="1016.9432"
     class="ball"
     style="opacity:0.2;fill:#5ddd7b;stroke:#21ba45;stroke-width:2" />
  <circle
     id="circle144"
     r="0"
     cy="718.90326"
     cx="1020.3326"
     class="ball"
     style="opacity:0.2;fill:#5ddd7b;stroke:#21ba45;stroke-width:2" />
  <circle
     id="circle146"
     r="0"
     cy="736.05005"
     cx="974.82019"
     class="ball"
     style="opacity:0.2;fill:#5ddd7b;stroke:#21ba45;stroke-width:2" />
  <circle
     id="circle148"
     r="0"
     cy="688.97864"
     cx="912.47205"
     class="ball"
     style="opacity:0.2;fill:#5ddd7b;stroke:#21ba45;stroke-width:2" />
  <circle
     id="circle150"
     r="0"
     cy="676.5545"
     cx="880.36627"
     class="ball"
     style="opacity:0.2;fill:#5ddd7b;stroke:#21ba45;stroke-width:2" />
  <circle
     id="circle152"
     r="0"
     cy="673.81366"
     cx="892.51349"
     class="ball"
     style="opacity:0.2;fill:#5ddd7b;stroke:#21ba45;stroke-width:2" />
  <circle
     id="circle154"
     r="0"
     cy="637.40826"
     cx="817.39081"
     class="ball"
     style="opacity:0.2;fill:#5ddd7b;stroke:#21ba45;stroke-width:2" />
  <circle
     id="circle156"
     r="0"
     cy="611.54138"
     cx="799.38666"
     class="ball"
     style="opacity:0.2;fill:#5ddd7b;stroke:#21ba45;stroke-width:2" />
  <circle
     id="circle158"
     r="0"
     cy="598.18164"
     cx="788.78003"
     class="ball"
     style="opacity:0.2;fill:#5ddd7b;stroke:#21ba45;stroke-width:2" />
  <circle
     id="circle160"
     r="0"
     cy="557.51324"
     cx="786.16766"
     class="ball"
     style="opacity:0.2;fill:#5ddd7b;stroke:#21ba45;stroke-width:2" />
  <circle
     id="circle162"
     r="0"
     cy="560.87988"
     cx="726.35596"
     class="ball"
     style="opacity:0.2;fill:#5ddd7b;stroke:#21ba45;stroke-width:2" />
  <circle
     id="circle164"
     r="0"
     cy="508.90991"
     cx="691.15302"
     class="ball"
     style="opacity:0.2;fill:#5ddd7b;stroke:#21ba45;stroke-width:2" />
  <circle
     id="circle166"
     r="0"
     cy="532.52869"
     cx="698.11127"
     class="ball"
     style="opacity:0.2;fill:#5ddd7b;stroke:#21ba45;stroke-width:2" />
  <circle
     id="circle168"
     r="0"
     cy="439.62576"
     cx="665.42426"
     class="ball"
     style="opacity:0.2;fill:#5ddd7b;stroke:#21ba45;stroke-width:2" />
  <circle
     id="circle170"
     r="0"
     cy="443.98608"
     cx="641.53198"
     class="ball"
     style="opacity:0.2;fill:#5ddd7b;stroke:#21ba45;stroke-width:2" />
  <circle
     id="circle172"
     r="0"
     cy="427.31146"
     cx="613.24744"
     class="ball"
     style="opacity:0.2;fill:#5ddd7b;stroke:#21ba45;stroke-width:2" />
  <circle
     id="circle174"
     r="0"
     cy="416.24582"
     cx="567.74573"
     class="ball"
     style="opacity:0.2;fill:#5ddd7b;stroke:#21ba45;stroke-width:2" />
  <circle
     id="circle176"
     r="0"
     cy="376.81659"
     cx="544.58246"
     class="ball"
     style="opacity:0.2;fill:#5ddd7b;stroke:#21ba45;stroke-width:2" />
  <circle
     id="circle178"
     r="0"
     cy="342.11179"
     cx="535.88446"
     class="ball"
     style="opacity:0.2;fill:#5ddd7b;stroke:#21ba45;stroke-width:2" />
  <circle
     id="circle180"
     r="0"
     cy="369.23572"
     cx="469.18295"
     class="ball"
     style="opacity:0.2;fill:#5ddd7b;stroke:#21ba45;stroke-width:2" />
  <circle
     id="circle182"
     r="0"
     cy="342.19772"
     cx="446.68399"
     class="ball"
     style="opacity:0.2;fill:#5ddd7b;stroke:#21ba45;stroke-width:2" />
  <circle
     id="circle184"
     r="0"
     cy="338.7431"
     cx="402.82639"
     class="ball"
     style="opacity:0.2;fill:#5ddd7b;stroke:#21ba45;stroke-width:2" />
  <circle
     id="circle186"
     r="0"
     cy="323.49628"
     cx="386.23434"
     class="ball"
     style="opacity:0.2;fill:#5ddd7b;stroke:#21ba45;stroke-width:2" />
  <circle
     id="circle188"
     r="0"
     cy="339.90927"
     cx="311.15179"
     class="ball"
     style="opacity:0.2;fill:#5ddd7b;stroke:#21ba45;stroke-width:2" />
  <circle
     id="circle190"
     r="0"
     cy="385.73349"
     cx="304.82626"
     class="ball"
     style="opacity:0.2;fill:#5ddd7b;stroke:#21ba45;stroke-width:2" />
  <circle
     id="circle192"
     r="0"
     cy="412.49869"
     cx="245.94106"
     class="ball"
     style="opacity:0.2;fill:#5ddd7b;stroke:#21ba45;stroke-width:2" />
  <circle
     id="circle194"
     r="0"
     cy="425.70041"
     cx="200.55675"
     class="ball"
     style="opacity:0.2;fill:#5ddd7b;stroke:#21ba45;stroke-width:2" />
  <circle
     id="circle196"
     r="0"
     cy="450.38159"
     cx="177.25058"
     class="ball"
     style="opacity:0.2;fill:#5ddd7b;stroke:#21ba45;stroke-width:2" />
  <circle
     id="circle198"
     r="0"
     cy="499.94186"
     cx="175.78835"
     class="ball"
     style="opacity:0.2;fill:#5ddd7b;stroke:#21ba45;stroke-width:2" />
  <circle
     id="circle200"
     r="0"
     cy="569.66083"
     cx="133.31274"
     class="ball"
     style="opacity:0.2;fill:#5ddd7b;stroke:#21ba45;stroke-width:2" />
  <circle
     id="circle202"
     r="0"
     cy="584.64008"
     cx="145.67763"
     class="ball"
     style="opacity:0.2;fill:#5ddd7b;stroke:#21ba45;stroke-width:2" />
  <circle
     id="circle204"
     r="0"
     cy="656.44202"
     cx="173.45177"
     class="ball"
     style="opacity:0.2;fill:#5ddd7b;stroke:#21ba45;stroke-width:2" />
  <circle
     id="circle206"
     r="0"
     cy="689.79395"
     cx="210.53082"
     class="ball"
     style="opacity:0.2;fill:#5ddd7b;stroke:#21ba45;stroke-width:2" />
  <circle
     id="circle208"
     r="0"
     cy="706.76562"
     cx="231.42441"
     class="ball"
     style="opacity:0.2;fill:#5ddd7b;stroke:#21ba45;stroke-width:2" />
  <circle
     id="circle210"
     r="0"
     cy="728.36346"
     cx="291.71753"
     class="ball"
     style="opacity:0.2;fill:#5ddd7b;stroke:#21ba45;stroke-width:2" />
  <circle
     id="circle212"
     r="0"
     cy="747.39966"
     cx="301.41959"
     class="ball"
     style="opacity:0.2;fill:#5ddd7b;stroke:#21ba45;stroke-width:2" />
  <circle
     id="circle214"
     r="0"
     cy="769.40741"
     cx="387.18781"
     class="ball"
     style="opacity:0.2;fill:#5ddd7b;stroke:#21ba45;stroke-width:2" />
  <circle
     id="circle216"
     r="0"
     cy="761.52234"
     cx="421.46127"
     class="ball"
     style="opacity:0.2;fill:#5ddd7b;stroke:#21ba45;stroke-width:2" />
  <circle
     id="circle218"
     r="0"
     cy="745.18219"
     cx="445.38577"
     class="ball"
     style="opacity:0.2;fill:#5ddd7b;stroke:#21ba45;stroke-width:2" />
  <circle
     id="circle220"
     r="0"
     cy="742.44037"
     cx="480.63068"
     class="ball"
     style="opacity:0.2;fill:#5ddd7b;stroke:#21ba45;stroke-width:2" />
  <circle
     id="circle222"
     r="0"
     cy="735.52405"
     cx="496.92484"
     class="ball"
     style="opacity:0.2;fill:#5ddd7b;stroke:#21ba45;stroke-width:2" />
  <circle
     id="circle224"
     r="0"
     cy="666.95056"
     cx="541.26788"
     class="ball"
     style="opacity:0.2;fill:#5ddd7b;stroke:#21ba45;stroke-width:2" />
  <circle
     id="circle226"
     r="0"
     cy="660.49408"
     cx="598.12549"
     class="ball"
     style="opacity:0.2;fill:#5ddd7b;stroke:#21ba45;stroke-width:2" />
  <circle
     id="circle228"
     r="0"
     cy="634.59845"
     cx="574.10931"
     class="ball"
     style="opacity:0.2;fill:#5ddd7b;stroke:#21ba45;stroke-width:2" />
  <circle
     id="circle230"
     r="0"
     cy="622.76825"
     cx="644.97278"
     class="ball"
     style="opacity:0.2;fill:#5ddd7b;stroke:#21ba45;stroke-width:2" />
  <circle
     id="circle232"
     r="0"
     cy="612.20544"
     cx="626.47229"
     class="ball"
     style="opacity:0.2;fill:#5ddd7b;stroke:#21ba45;stroke-width:2" />
  <circle
     id="circle234"
     r="0"
     cy="613.84344"
     cx="667.35547"
     class="ball"
     style="opacity:0.2;fill:#5ddd7b;stroke:#21ba45;stroke-width:2" />
  <circle
     id="circle236"
     r="0"
     cy="584.35413"
     cx="692.8186"
     class="ball"
     style="opacity:0.2;fill:#5ddd7b;stroke:#21ba45;stroke-width:2" />
  <circle
     id="circle238"
     r="0"
     cy="560.18964"
     cx="727.00189"
     class="ball"
     style="opacity:0.2;fill:#5ddd7b;stroke:#21ba45;stroke-width:2" />
  <circle
     style="opacity:0.6;fill:#3be57f;fill-opacity:0.98039216;stroke:none"
     id="circle240"
     r="3"
     cy="558.22607"
     cx="781.50116"
     class="sample" />
  <circle
     style="opacity:0.6;fill:#3be57f;fill-opacity:0.98039216;stroke:none"
     id="circle242"
     r="3"
     cy="523.57404"
     cx="759.93536"
     class="sample" />
  <circle
     style="opacity:0.6;fill:#3be57f;fill-opacity:0.98039216;stroke:none"
     id="circle244"
     r="3"
     cy="508.16925"
     cx="784.20947"
     class="sample" />
  <circle
     style="opacity:0.6;fill:#3be57f;fill-opacity:0.98039216;stroke:none"
     id="circle246"
     r="3"
     cy="464.62552"
     cx="827.02924"
     class="sample" />
  <circle
     style="opacity:0.6;fill:#3be57f;fill-opacity:0.98039216;stroke:none"
     id="circle248"
     r="3"
     cy="404.03799"
     cx="834.45056"
     class="sample" />
  <circle
     style="opacity:0.6;fill:#3be57f;fill-opacity:0.98039216;stroke:none"
     id="circle250"
     r="3"
     cy="419.96866"
     cx="918.67529"
     class="sample" />
  <circle
     style="opacity:0.6;fill:#3be57f;fill-opacity:0.98039216;stroke:none"
     id="circle252"
     r="3"
     cy="420.94592"
     cx="881.39746"
     class="sample" />
  <circle
     style="opacity:0.6;fill:#3be57f;fill-opacity:0.98039216;stroke:none"
     id="circle254"
     r="3"
     cy="355.37656"
     cx="971.63708"
     class="sample" />
  <circle
     style="opacity:0.6;fill:#3be57f;fill-opacity:0.98039216;stroke:none"
     id="circle256"
     r="3"
     cy="364.80496"
     cx="962.46002"
     class="sample" />
  <circle
     style="opacity:0.6;fill:#3be57f;fill-opacity:0.98039216;stroke:none"
     id="circle258"
     r="3"
     cy="329.27631"
     cx="1023.4109"
     class="sample" />
  <circle
     style="opacity:0.6;fill:#3be57f;fill-opacity:0.98039216;stroke:none"
     id="circle260"
     r="3"
     cy="342.31375"
     cx="1041.9165"
     class="sample" />
  <circle
     style="opacity:0.6;fill:#3be57f;fill-opacity:0.98039216;stroke:none"
     id="circle262"
     r="3"
     cy="340.99246"
     cx="1080.8845"
     class="sample" />
  <circle
     style="opacity:0.6;fill:#3be57f;fill-opacity:0.98039216;stroke:none"
     id="circle264"
     r="3"
     cy="343.39172"
     cx="1122.4917"
     class="sample" />
  <circle
     style="opacity:0.6;fill:#3be57f;fill-opacity:0.98039216;stroke:none"
     id="circle266"
     r="3"
     cy="364.36887"
     cx="1158.512"
     class="sample" />
  <circle
     style="opacity:0.6;fill:#3be57f;fill-opacity:0.98039216;stroke:none"
     id="circle268"
     r="3"
     cy="325.32748"
     cx="1221.7369"
     class="sample" />
  <circle
     style="opacity:0.6;fill:#3be57f;fill-opacity:0.98039216;stroke:none"
     id="circle270"
     r="3"
     cy="392.59967"
     cx="1275.8163"
     class="sample" />
  <circle
     style="opacity:0.6;fill:#3be57f;fill-opacity:0.98039216;stroke:none"
     id="circle272"
     r="3"
     cy="402.65091"
     cx="1302.6095"
     class="sample" />
  <circle
     style="opacity:0.6;fill:#3be57f;fill-opacity:0.98039216;stroke:none"
     id="circle274"
     r="3"
     cy="456.94675"
     cx="1306.2871"
     class="sample" />
  <circle
     style="opacity:0.6;fill:#3be57f;fill-opacity:0.98039216;stroke:none"
     id="circle276"
     r="3"
     cy="524.79095"
     cx="1323.5206"
     class="sample" />
  <circle
     id="circle278"
     r="0"
     cy="558.22607"
     cx="781.50116"
     class="ball"
     style="opacity:0.2;fill:#5ddd7b;stroke:#21ba45;stroke-width:2" />
  <circle
     id="circle280"
     r="0"
     cy="523.57404"
     cx="759.93536"
     class="ball"
     style="opacity:0.2;fill:#5ddd7b;stroke:#21ba45;stroke-width:2" />
  <circle
     id="circle282"
     r="0"
     cy="508.16925"
     cx="784.20947"
     class="ball"
     style="opacity:0.2;fill:#5ddd7b;stroke:#21ba45;stroke-width:2" />
  <circle
     id="circle284"
     r="0"
     cy="464.62552"
     cx="827.02924"
     class="ball"
     style="opacity:0.2;fill:#5ddd7b;stroke:#21ba45;stroke-width:2" />
  <circle
     id="circle286"
     r="0"
     cy="404.03799"
     cx="834.45056"
     class="ball"
     style="opacity:0.2;fill:#5ddd7b;stroke:#21ba45;stroke-width:2" />
  <circle
     id="circle288"
     r="0"
     cy="419.96866"
     cx="918.67529"
     class="ball"
     style="opacity:0.2;fill:#5ddd7b;stroke:#21ba45;stroke-width:2" />
  <circle
     id="circle290"
     r="0"
     cy="420.94592"
     cx="881.39746"
     class="ball"
     style="opacity:0.2;fill:#5ddd7b;stroke:#21ba45;stroke-width:2" />
  <circle
     id="circle292"
     r="0"
     cy="355.37656"
     cx="971.63708"
     class="ball"
     style="opacity:0.2;fill:#5ddd7b;stroke:#21ba45;stroke-width:2" />
  <circle
     id="circle294"
     r="0"
     cy="364.80496"
     cx="962.46002"
     class="ball"
     style="opacity:0.2;fill:#5ddd7b;stroke:#21ba45;stroke-width:2" />
  <circle
     id="circle296"
     r="0"
     cy="329.27631"
     cx="1023.4109"
     class="ball"
     style="opacity:0.2;fill:#5ddd7b;stroke:#21ba45;stroke-width:2" />
  <circle
     id="circle298"
     r="0"
     cy="342.31375"
     cx="1041.9165"
     class="ball"
     style="opacity:0.2;fill:#5ddd7b;stroke:#21ba45;stroke-width:2" />
  <circle
     id="circle300"
     r="0"
     cy="340.99246"
     cx="1080.8845"
     class="ball"
     style="opacity:0.2;fill:#5ddd7b;stroke:#21ba45;stroke-width:2" />
  <circle
     id="circle302"
     r="0"
     cy="343.39172"
     cx="1122.4917"
     class="ball"
     style="opacity:0.2;fill:#5ddd7b;stroke:#21ba45;stroke-width:2" />
  <circle
     id="circle304"
     r="0"
     cy="364.36887"
     cx="1158.512"
     class="ball"
     style="opacity:0.2;fill:#5ddd7b;stroke:#21ba45;stroke-width:2" />
  <circle
     id="circle306"
     r="0"
     cy="325.32748"
     cx="1221.7369"
     class="ball"
     style="opacity:0.2;fill:#5ddd7b;stroke:#21ba45;stroke-width:2" />
  <circle
     id="circle308"
     r="0"
     cy="392.59967"
     cx="1275.8163"
     class="ball"
     style="opacity:0.2;fill:#5ddd7b;stroke:#21ba45;stroke-width:2" />
  <circle
     id="circle310"
     r="0"
     cy="402.65091"
     cx="1302.6095"
     class="ball"
     style="opacity:0.2;fill:#5ddd7b;stroke:#21ba45;stroke-width:2" />
  <circle
     id="circle312"
     r="0"
     cy="456.94675"
     cx="1306.2871"
     class="ball"
     style="opacity:0.2;fill:#5ddd7b;stroke:#21ba45;stroke-width:2" />
  <circle
     id="circle314"
     r="0"
     cy="524.79095"
     cx="1323.5206"
     class="ball"
     style="opacity:0.2;fill:#5ddd7b;stroke:#21ba45;stroke-width:2" />
  <circle
     style="opacity:0.6;fill:#3be57f;fill-opacity:0.98039216;stroke:none"
     id="circle60-3"
     r="3"
     cy="198.24651"
     cx="222.75772"
     class="sample" />
  <circle
     style="opacity:0.6;fill:#3be57f;fill-opacity:0.98039216;stroke:none"
     id="circle60-6"
     cy="124.49394"
     cx="313.4119"
     class="sample"
     r="3" />
  <circle
     style="opacity:0.6;fill:#3be57f;fill-opacity:0.98039216;stroke:none"
     id="circle60-7"
     r="3"
     cy="178.27187"
     cx="503.93942"
     class="sample" />
  <circle
     style="opacity:0.6;fill:#3be57f;fill-opacity:0.98039216;stroke:none"
     id="circle60-5"
     r="3"
     cy="213.61162"
     cx="715.97809"
     class="sample" />
  <circle
     style="opacity:0.6;fill:#3be57f;fill-opacity:0.98039216;stroke:none"
     id="circle60-35"
     r="3"
     cy="379.55493"
     cx="711.36853"
     class="sample" />
  <circle
     style="opacity:0.6;fill:#3be57f;fill-opacity:0.98039216;stroke:none"
     id="circle60-9"
     r="3"
     cy="192.10045"
     cx="1078.5948"
     class="sample" />
  <circle
     style="opacity:0.6;fill:#3be57f;fill-opacity:0.98039216;stroke:none"
     id="circle60-1"
     r="3"
     cy="59.960445"
     cx="911.11511"
     class="sample" />
  <circle
     style="opacity:0.6;fill:#3be57f;fill-opacity:0.98039216;stroke:none"
     id="circle60-2"
     r="3"
     cy="172.12582"
     cx="911.11511"
     class="sample" />
  <circle
     style="opacity:0.6;fill:#3be57f;fill-opacity:0.98039216;stroke:none"
     id="circle60-93"
     r="3"
     cy="789.80365"
     cx="702.14948"
     class="sample" />
  <circle
     style="opacity:0.6;fill:#3be57f;fill-opacity:0.98039216;stroke:none"
     id="circle60-60"
     r="3"
     cy="851.2641"
     cx="410.21219"
     class="sample" />
  <circle
     style="opacity:0.6;fill:#3be57f;fill-opacity:0.98039216;stroke:none"
     id="circle60-626"
     r="3"
     cy="926.55328"
     cx="225.83075"
     class="sample" />
  <circle
     style="opacity:0.6;fill:#3be57f;fill-opacity:0.98039216;stroke:none"
     id="circle60-18"
     r="3"
     cy="943.4549"
     cx="1010.9883"
     class="sample" />
  <circle
     style="opacity:0.6;fill:#3be57f;fill-opacity:0.98039216;stroke:none"
     id="circle60-79"
     r="3"
     cy="877.38483"
     cx="1213.8077"
     class="sample" />
  <circle
     style="opacity:0.6;fill:#3be57f;fill-opacity:0.98039216;stroke:none"
     id="circle60-20"
     r="3"
     cy="857.41022"
     cx="1365.9225"
     class="sample" />
  <circle
     style="opacity:0.6;fill:#3be57f;fill-opacity:0.98039216;stroke:none"
     id="circle60-23"
     r="3"
     cy="132.17651"
     cx="1289.0968"
     class="sample" />
  <circle
     style="opacity:0.6;fill:#3be57f;fill-opacity:0.98039216;stroke:none"
     id="circle60-75"
     r="3"
     cy="167.51627"
     cx="116.7384"
     class="sample" />
</svg>
